<svg xmlns="http://www.w3.org/2000/svg" width="96" height="96" viewBox="0 0 96 96" role="img" aria-label="Розрахунковий опір ґрунту основи">
  <rect width="96" height="96" rx="16" fill="#fff3ed"/>
  <path d="M14 18h68v60H14z" fill="none" stroke="#ffd7c3" stroke-width="2"/>
  <g fill="none" stroke="#3f2619" stroke-width="4" stroke-linecap="round" stroke-linejoin="round">
    
      <path d="M29 24h38v14H29zM22 38h52v14H22z" />
      <path d="M23 62c8-5 16-5 24 0s16 5 26 0" />
      <path d="M26 70c8-5 16-5 24 0s16 5 22 0" />
      <path d="M37 52l-5 10M50 52l-5 10M63 52l-5 10" class="accent" />
  </g>
  <rect x="13" y="13" width="28" height="18" rx="5" fill="#3f2619"/>
  <text x="27" y="26" text-anchor="middle" font-family="ui-monospace, SFMono-Regular, Menlo, monospace" font-size="10" font-weight="700" fill="#fff">R0</text>
  <style>
    .accent{stroke:#e95f2a}
    .fill-accent{fill:#e95f2a;stroke:none}
  </style>
</svg>
